<svg width="256" height="256" viewBox="0 0 256 256" fill="none" xmlns="http://www.w3.org/2000/svg">
<path d="M128.737 71.423L77.472 27.6054C73.0497 23.3344 67.6448 20.0125 61.7484 18.1143C35.3786 9.57224 -0.163223 27.2891 0.000564031 64.4628C0.000564031 70.632 0.000564031 71.5812 0.000564031 76.1686V204.774C0.000564031 219.485 12.4484 231.507 27.6806 231.507C42.9129 231.507 55.3607 219.485 55.3607 204.774V78.225L98.6006 117.771L128.574 71.423H128.737Z" fill="#E08D0D"/>
<path d="M194.578 18.458C188.682 20.3563 183.277 23.6782 178.855 27.9492L134.141 69.3939C144.623 83.947 155.105 98.8165 165.424 114.002L200.638 78.7269V205.276C200.638 219.987 213.086 232.009 228.318 232.009C243.551 232.009 255.998 219.987 255.998 205.276V76.5123C255.998 71.9249 255.998 70.8176 255.998 64.8065C256.162 27.6328 220.457 9.91599 194.414 18.458H194.578Z" fill="#E08D0D"/>
<path d="M128.403 229.653C97.7746 229.653 72.8789 206.241 72.8789 177.61C72.8789 176.502 72.8789 175.553 72.8789 174.604C72.8789 173.813 72.8789 173.18 72.8789 172.548C72.8789 168.909 72.8789 157.995 98.5935 116.392C111.041 96.302 123.489 78.5852 123.653 78.427L128.403 71.625L133.153 78.427C133.153 78.427 145.764 96.9348 158.048 117.183C183.435 159.26 183.435 169.384 183.435 172.548C183.435 173.18 183.435 173.813 183.435 174.446C183.435 175.237 183.435 176.344 183.435 177.293C183.435 206.083 158.54 229.336 127.911 229.336L128.403 229.653ZM128.403 91.7146C109.731 118.923 84.5078 159.893 84.5078 172.706C84.5078 173.813 84.5078 174.762 84.5078 175.553C84.5078 176.344 84.5078 176.977 84.5078 177.61C84.5078 200.23 104.326 218.738 128.567 218.738C152.807 218.738 172.625 200.388 172.625 177.61C172.625 176.977 172.625 176.344 172.625 175.553C172.625 174.762 172.625 173.813 172.625 172.706C172.625 169.542 170.332 158.627 148.712 122.877C141.178 110.381 133.644 98.6748 128.894 91.5564L128.403 91.7146Z" fill="#E2D3BF"/>
</svg>
